<svg xmlns="http://www.w3.org/2000/svg" viewBox="0 0 512 512" width="512" height="512">
  <rect width="512" height="512" rx="80" ry="80" fill="#2d6a3f"/>
  <path d="
    M 256 90
    C 234 128 122 230 122 304
    C 122 358 150 394 202 394
    C 230 394 250 378 256 362
    C 262 378 282 394 310 394
    C 362 394 390 358 390 304
    C 390 230 278 128 256 90
    Z
  " fill="white"/>
  <path d="
    M 240 362
    C 230 400 192 426 154 438
    L 240 438
    Z
    M 272 362
    C 282 400 320 426 358 438
    L 272 438
    Z
  " fill="white"/>
</svg>
