<svg xmlns="http://www.w3.org/2000/svg" viewBox="0 0 192 192" width="192" height="192">
  <rect width="192" height="192" rx="32" ry="32" fill="#2d6a3f"/>
  <path d="
    M 96 34
    C 88 48 46 86 46 114
    C 46 134 60 148 76 148
    C 86 148 94 142 96 136
    C 98 142 106 148 116 148
    C 132 148 146 134 146 114
    C 146 86 104 48 96 34
    Z
  " fill="white"/>
  <path d="
    M 90 136
    C 86 150 72 160 58 164
    L 90 164
    Z
    M 102 136
    C 106 150 120 160 134 164
    L 102 164
    Z
  " fill="white"/>
</svg>
